<mxfile host="Electron" modified="2023-05-24T08:30:15.427Z" agent="Mozilla/5.0 (Windows NT 10.0; Win64; x64) AppleWebKit/537.36 (KHTML, like Gecko) draw.io/21.1.2 Chrome/106.0.5249.199 Electron/21.4.3 Safari/537.36" etag="qfhAGgu5AiU1dWMQTKYM" version="21.1.2" type="device" pages="6">
  <diagram name="login" id="FLblF5Tzz9W13L3P5BDf">
    <mxGraphModel dx="748" dy="496" grid="1" gridSize="10" guides="1" tooltips="1" connect="1" arrows="1" fold="1" page="1" pageScale="1" pageWidth="850" pageHeight="1100" math="0" shadow="0">
      <root>
        <mxCell id="0" />
        <mxCell id="1" parent="0" />
        <mxCell id="5Bve3Eeoe_nnUpyeOPVW-1" value="&lt;font style=&quot;font-size: 15px;&quot;&gt;&lt;b&gt;verified&lt;/b&gt;&lt;/font&gt;" style="rhombus;whiteSpace=wrap;html=1;" parent="1" vertex="1">
          <mxGeometry x="190" y="230" width="80" height="80" as="geometry" />
        </mxCell>
        <mxCell id="5Bve3Eeoe_nnUpyeOPVW-2" value="&lt;font style=&quot;font-size: 14px;&quot;&gt;&lt;b&gt;Enter username and password&lt;/b&gt;&lt;/font&gt;" style="rounded=0;whiteSpace=wrap;html=1;" parent="1" vertex="1">
          <mxGeometry x="160" y="130" width="140" height="40" as="geometry" />
        </mxCell>
        <mxCell id="5Bve3Eeoe_nnUpyeOPVW-3" value="&lt;font style=&quot;font-size: 20px;&quot;&gt;&lt;b&gt;Start&lt;/b&gt;&lt;/font&gt;" style="ellipse;whiteSpace=wrap;html=1;" parent="1" vertex="1">
          <mxGeometry x="170" y="30" width="120" height="60" as="geometry" />
        </mxCell>
        <mxCell id="5Bve3Eeoe_nnUpyeOPVW-4" value="" style="endArrow=classic;html=1;rounded=0;exitX=0.5;exitY=1;exitDx=0;exitDy=0;entryX=0.5;entryY=0;entryDx=0;entryDy=0;" parent="1" source="5Bve3Eeoe_nnUpyeOPVW-3" target="5Bve3Eeoe_nnUpyeOPVW-2" edge="1">
          <mxGeometry width="50" height="50" relative="1" as="geometry">
            <mxPoint x="360" y="300" as="sourcePoint" />
            <mxPoint x="410" y="250" as="targetPoint" />
          </mxGeometry>
        </mxCell>
        <mxCell id="5Bve3Eeoe_nnUpyeOPVW-5" value="" style="endArrow=classic;html=1;rounded=0;exitX=0.5;exitY=1;exitDx=0;exitDy=0;entryX=0.5;entryY=0;entryDx=0;entryDy=0;" parent="1" source="5Bve3Eeoe_nnUpyeOPVW-2" target="5Bve3Eeoe_nnUpyeOPVW-1" edge="1">
          <mxGeometry width="50" height="50" relative="1" as="geometry">
            <mxPoint x="240" y="100" as="sourcePoint" />
            <mxPoint x="240" y="140" as="targetPoint" />
          </mxGeometry>
        </mxCell>
        <mxCell id="5Bve3Eeoe_nnUpyeOPVW-6" value="" style="endArrow=classic;html=1;rounded=0;entryX=0.5;entryY=0;entryDx=0;entryDy=0;exitX=0.5;exitY=1;exitDx=0;exitDy=0;" parent="1" source="5Bve3Eeoe_nnUpyeOPVW-1" edge="1">
          <mxGeometry width="50" height="50" relative="1" as="geometry">
            <mxPoint x="230" y="330" as="sourcePoint" />
            <mxPoint x="230" y="370" as="targetPoint" />
          </mxGeometry>
        </mxCell>
        <mxCell id="5Bve3Eeoe_nnUpyeOPVW-7" value="&lt;font style=&quot;font-size: 16px;&quot;&gt;&lt;b&gt;Display Homepage&lt;/b&gt;&lt;/font&gt;" style="rounded=0;whiteSpace=wrap;html=1;" parent="1" vertex="1">
          <mxGeometry x="160" y="370" width="140" height="40" as="geometry" />
        </mxCell>
        <mxCell id="5Bve3Eeoe_nnUpyeOPVW-8" value="&lt;font style=&quot;font-size: 17px;&quot;&gt;&lt;b&gt;Invalid Input&lt;/b&gt;&lt;/font&gt;" style="rounded=0;whiteSpace=wrap;html=1;" parent="1" vertex="1">
          <mxGeometry x="450" y="250" width="140" height="40" as="geometry" />
        </mxCell>
        <mxCell id="5Bve3Eeoe_nnUpyeOPVW-9" value="" style="endArrow=classic;html=1;rounded=0;" parent="1" edge="1">
          <mxGeometry width="50" height="50" relative="1" as="geometry">
            <mxPoint x="520" y="100" as="sourcePoint" />
            <mxPoint x="230" y="100" as="targetPoint" />
          </mxGeometry>
        </mxCell>
        <mxCell id="5Bve3Eeoe_nnUpyeOPVW-10" value="" style="endArrow=classic;html=1;rounded=0;exitX=1;exitY=0.5;exitDx=0;exitDy=0;entryX=0;entryY=0.5;entryDx=0;entryDy=0;" parent="1" source="5Bve3Eeoe_nnUpyeOPVW-1" target="5Bve3Eeoe_nnUpyeOPVW-8" edge="1">
          <mxGeometry width="50" height="50" relative="1" as="geometry">
            <mxPoint x="310" y="280" as="sourcePoint" />
            <mxPoint x="600" y="200" as="targetPoint" />
          </mxGeometry>
        </mxCell>
        <mxCell id="5Bve3Eeoe_nnUpyeOPVW-11" value="" style="endArrow=none;html=1;rounded=0;exitX=0.5;exitY=0;exitDx=0;exitDy=0;" parent="1" source="5Bve3Eeoe_nnUpyeOPVW-8" edge="1">
          <mxGeometry width="50" height="50" relative="1" as="geometry">
            <mxPoint x="520" y="240" as="sourcePoint" />
            <mxPoint x="520" y="100" as="targetPoint" />
          </mxGeometry>
        </mxCell>
        <mxCell id="5Bve3Eeoe_nnUpyeOPVW-12" value="&lt;font style=&quot;font-size: 20px;&quot;&gt;&lt;b&gt;stop&lt;/b&gt;&lt;/font&gt;" style="ellipse;whiteSpace=wrap;html=1;" parent="1" vertex="1">
          <mxGeometry x="170" y="450" width="120" height="60" as="geometry" />
        </mxCell>
        <mxCell id="5Bve3Eeoe_nnUpyeOPVW-13" value="" style="endArrow=classic;html=1;rounded=0;exitX=0.5;exitY=1;exitDx=0;exitDy=0;entryX=0.5;entryY=0;entryDx=0;entryDy=0;" parent="1" source="5Bve3Eeoe_nnUpyeOPVW-7" target="5Bve3Eeoe_nnUpyeOPVW-12" edge="1">
          <mxGeometry width="50" height="50" relative="1" as="geometry">
            <mxPoint x="550" y="250" as="sourcePoint" />
            <mxPoint x="600" y="200" as="targetPoint" />
          </mxGeometry>
        </mxCell>
        <mxCell id="Jgr8D-7jCnAheQ2k61YC-1" value="&lt;font style=&quot;font-size: 16px;&quot;&gt;&lt;b&gt;False&lt;/b&gt;&lt;/font&gt;" style="text;html=1;align=center;verticalAlign=middle;resizable=0;points=[];autosize=1;strokeColor=none;fillColor=none;" vertex="1" parent="1">
          <mxGeometry x="320" y="240" width="60" height="30" as="geometry" />
        </mxCell>
        <mxCell id="Jgr8D-7jCnAheQ2k61YC-2" value="&lt;font style=&quot;font-size: 16px;&quot;&gt;&lt;b&gt;True&lt;/b&gt;&lt;/font&gt;" style="text;html=1;align=center;verticalAlign=middle;resizable=0;points=[];autosize=1;strokeColor=none;fillColor=none;strokeWidth=3;" vertex="1" parent="1">
          <mxGeometry x="230" y="340" width="60" height="30" as="geometry" />
        </mxCell>
      </root>
    </mxGraphModel>
  </diagram>
  <diagram id="vgSnhu0bOQGnpwnxg_C0" name="View Prescription">
    <mxGraphModel dx="748" dy="496" grid="1" gridSize="10" guides="1" tooltips="1" connect="1" arrows="1" fold="1" page="1" pageScale="1" pageWidth="850" pageHeight="1100" math="0" shadow="0">
      <root>
        <mxCell id="0" />
        <mxCell id="1" parent="0" />
        <mxCell id="NxDEdk-Qy8g-m-_FnfTh-1" value="&lt;font size=&quot;1&quot; style=&quot;&quot;&gt;&lt;b style=&quot;font-size: 13px;&quot;&gt;If Prescriptions are available&lt;/b&gt;&lt;/font&gt;" style="rhombus;whiteSpace=wrap;html=1;" parent="1" vertex="1">
          <mxGeometry x="150" y="190" width="140" height="130" as="geometry" />
        </mxCell>
        <mxCell id="NxDEdk-Qy8g-m-_FnfTh-2" value="&lt;b style=&quot;&quot;&gt;&lt;font style=&quot;font-size: 16px;&quot;&gt;View Prescription&lt;/font&gt;&lt;/b&gt;" style="rounded=0;whiteSpace=wrap;html=1;" parent="1" vertex="1">
          <mxGeometry x="150" y="120" width="140" height="40" as="geometry" />
        </mxCell>
        <mxCell id="NxDEdk-Qy8g-m-_FnfTh-3" value="&lt;font style=&quot;font-size: 20px;&quot;&gt;&lt;b&gt;Start&lt;/b&gt;&lt;/font&gt;" style="ellipse;whiteSpace=wrap;html=1;" parent="1" vertex="1">
          <mxGeometry x="160" y="20" width="120" height="60" as="geometry" />
        </mxCell>
        <mxCell id="NxDEdk-Qy8g-m-_FnfTh-4" value="" style="endArrow=classic;html=1;rounded=0;exitX=0.5;exitY=1;exitDx=0;exitDy=0;entryX=0.5;entryY=0;entryDx=0;entryDy=0;" parent="1" source="NxDEdk-Qy8g-m-_FnfTh-3" target="NxDEdk-Qy8g-m-_FnfTh-2" edge="1">
          <mxGeometry width="50" height="50" relative="1" as="geometry">
            <mxPoint x="350" y="290" as="sourcePoint" />
            <mxPoint x="400" y="240" as="targetPoint" />
          </mxGeometry>
        </mxCell>
        <mxCell id="NxDEdk-Qy8g-m-_FnfTh-5" value="" style="endArrow=classic;html=1;rounded=0;exitX=0.5;exitY=1;exitDx=0;exitDy=0;entryX=0.5;entryY=0;entryDx=0;entryDy=0;" parent="1" source="NxDEdk-Qy8g-m-_FnfTh-2" target="NxDEdk-Qy8g-m-_FnfTh-1" edge="1">
          <mxGeometry width="50" height="50" relative="1" as="geometry">
            <mxPoint x="230" y="90" as="sourcePoint" />
            <mxPoint x="230" y="130" as="targetPoint" />
          </mxGeometry>
        </mxCell>
        <mxCell id="NxDEdk-Qy8g-m-_FnfTh-6" value="" style="endArrow=classic;html=1;rounded=0;entryX=0.5;entryY=0;entryDx=0;entryDy=0;exitX=0.5;exitY=1;exitDx=0;exitDy=0;" parent="1" source="NxDEdk-Qy8g-m-_FnfTh-1" target="NxDEdk-Qy8g-m-_FnfTh-7" edge="1">
          <mxGeometry width="50" height="50" relative="1" as="geometry">
            <mxPoint x="220" y="320" as="sourcePoint" />
            <mxPoint x="220" y="360" as="targetPoint" />
          </mxGeometry>
        </mxCell>
        <mxCell id="NxDEdk-Qy8g-m-_FnfTh-7" value="&lt;b style=&quot;&quot;&gt;&lt;font style=&quot;font-size: 16px;&quot;&gt;Display Prescriptions&lt;/font&gt;&lt;/b&gt;" style="rounded=0;whiteSpace=wrap;html=1;" parent="1" vertex="1">
          <mxGeometry x="150" y="360" width="140" height="40" as="geometry" />
        </mxCell>
        <mxCell id="NxDEdk-Qy8g-m-_FnfTh-8" value="&lt;b style=&quot;&quot;&gt;&lt;font style=&quot;font-size: 16px;&quot;&gt;Prescriptions are not available&lt;/font&gt;&lt;/b&gt;" style="rounded=0;whiteSpace=wrap;html=1;" parent="1" vertex="1">
          <mxGeometry x="440" y="235" width="140" height="40" as="geometry" />
        </mxCell>
        <mxCell id="NxDEdk-Qy8g-m-_FnfTh-9" value="&lt;font style=&quot;font-size: 20px;&quot;&gt;&lt;b&gt;Stop&lt;/b&gt;&lt;/font&gt;" style="ellipse;whiteSpace=wrap;html=1;" parent="1" vertex="1">
          <mxGeometry x="160" y="440" width="120" height="60" as="geometry" />
        </mxCell>
        <mxCell id="NxDEdk-Qy8g-m-_FnfTh-10" value="" style="endArrow=classic;html=1;rounded=0;exitX=0.5;exitY=1;exitDx=0;exitDy=0;entryX=0.5;entryY=0;entryDx=0;entryDy=0;" parent="1" source="NxDEdk-Qy8g-m-_FnfTh-7" target="NxDEdk-Qy8g-m-_FnfTh-9" edge="1">
          <mxGeometry width="50" height="50" relative="1" as="geometry">
            <mxPoint x="540" y="240" as="sourcePoint" />
            <mxPoint x="590" y="190" as="targetPoint" />
          </mxGeometry>
        </mxCell>
        <mxCell id="NxDEdk-Qy8g-m-_FnfTh-11" value="&lt;b&gt;&lt;font style=&quot;font-size: 16px;&quot;&gt;True&lt;/font&gt;&lt;/b&gt;" style="text;html=1;align=center;verticalAlign=middle;resizable=0;points=[];autosize=1;strokeColor=none;fillColor=none;fontSize=18;" parent="1" vertex="1">
          <mxGeometry x="220" y="320" width="56" height="40" as="geometry" />
        </mxCell>
        <mxCell id="NxDEdk-Qy8g-m-_FnfTh-12" value="&lt;b&gt;&lt;font style=&quot;font-size: 16px;&quot;&gt;False&lt;/font&gt;&lt;/b&gt;" style="text;html=1;align=center;verticalAlign=middle;resizable=0;points=[];autosize=1;strokeColor=none;fillColor=none;fontSize=18;" parent="1" vertex="1">
          <mxGeometry x="330" y="220" width="64" height="40" as="geometry" />
        </mxCell>
        <mxCell id="NxDEdk-Qy8g-m-_FnfTh-13" value="" style="endArrow=none;html=1;rounded=0;fontSize=18;exitX=1;exitY=0.5;exitDx=0;exitDy=0;entryX=0;entryY=0.5;entryDx=0;entryDy=0;" parent="1" source="NxDEdk-Qy8g-m-_FnfTh-1" target="NxDEdk-Qy8g-m-_FnfTh-8" edge="1">
          <mxGeometry width="50" height="50" relative="1" as="geometry">
            <mxPoint x="400" y="290" as="sourcePoint" />
            <mxPoint x="450" y="240" as="targetPoint" />
          </mxGeometry>
        </mxCell>
        <mxCell id="NxDEdk-Qy8g-m-_FnfTh-14" value="" style="endArrow=classic;html=1;rounded=0;fontSize=18;exitX=0.5;exitY=1;exitDx=0;exitDy=0;" parent="1" source="NxDEdk-Qy8g-m-_FnfTh-8" edge="1">
          <mxGeometry width="50" height="50" relative="1" as="geometry">
            <mxPoint x="400" y="290" as="sourcePoint" />
            <mxPoint x="220" y="420" as="targetPoint" />
            <Array as="points">
              <mxPoint x="510" y="420" />
            </Array>
          </mxGeometry>
        </mxCell>
      </root>
    </mxGraphModel>
  </diagram>
  <diagram id="aKHj8Zi4yt1ql839jN2K" name="Registration">
    <mxGraphModel dx="748" dy="496" grid="1" gridSize="10" guides="1" tooltips="1" connect="1" arrows="1" fold="1" page="1" pageScale="1" pageWidth="850" pageHeight="1100" math="0" shadow="0">
      <root>
        <mxCell id="0" />
        <mxCell id="1" parent="0" />
        <mxCell id="d-O8g6hMYfmyvD1HsXtO-1" value="&lt;b&gt;&lt;font style=&quot;font-size: 14px;&quot;&gt;New user?&lt;/font&gt;&lt;/b&gt;" style="rhombus;whiteSpace=wrap;html=1;" parent="1" vertex="1">
          <mxGeometry x="190" y="210" width="80" height="80" as="geometry" />
        </mxCell>
        <mxCell id="d-O8g6hMYfmyvD1HsXtO-2" value="&lt;b&gt;&lt;font style=&quot;font-size: 17px;&quot;&gt;Registration&lt;/font&gt;&lt;/b&gt;" style="rounded=0;whiteSpace=wrap;html=1;" parent="1" vertex="1">
          <mxGeometry x="160" y="130" width="140" height="40" as="geometry" />
        </mxCell>
        <mxCell id="d-O8g6hMYfmyvD1HsXtO-3" value="&lt;b&gt;&lt;font style=&quot;font-size: 20px;&quot;&gt;Start&lt;/font&gt;&lt;/b&gt;" style="ellipse;whiteSpace=wrap;html=1;" parent="1" vertex="1">
          <mxGeometry x="170" y="30" width="120" height="60" as="geometry" />
        </mxCell>
        <mxCell id="d-O8g6hMYfmyvD1HsXtO-6" value="" style="endArrow=classic;html=1;rounded=0;entryX=0.5;entryY=0;entryDx=0;entryDy=0;exitX=0.5;exitY=1;exitDx=0;exitDy=0;startArrow=none;" parent="1" source="d-O8g6hMYfmyvD1HsXtO-15" edge="1">
          <mxGeometry width="50" height="50" relative="1" as="geometry">
            <mxPoint x="230" y="330" as="sourcePoint" />
            <mxPoint x="230" y="370" as="targetPoint" />
          </mxGeometry>
        </mxCell>
        <mxCell id="d-O8g6hMYfmyvD1HsXtO-7" value="&lt;b&gt;&lt;font style=&quot;font-size: 15px;&quot;&gt;Display home page&lt;/font&gt;&lt;/b&gt;" style="rounded=0;whiteSpace=wrap;html=1;" parent="1" vertex="1">
          <mxGeometry x="160" y="420" width="140" height="40" as="geometry" />
        </mxCell>
        <mxCell id="d-O8g6hMYfmyvD1HsXtO-8" value="&lt;b&gt;&lt;font style=&quot;font-size: 16px;&quot;&gt;Enter login details&lt;/font&gt;&lt;/b&gt;" style="rounded=0;whiteSpace=wrap;html=1;" parent="1" vertex="1">
          <mxGeometry x="460" y="230" width="140" height="40" as="geometry" />
        </mxCell>
        <mxCell id="d-O8g6hMYfmyvD1HsXtO-12" value="&lt;b&gt;&lt;font style=&quot;font-size: 20px;&quot;&gt;Stop&lt;/font&gt;&lt;/b&gt;" style="ellipse;whiteSpace=wrap;html=1;" parent="1" vertex="1">
          <mxGeometry x="170" y="490" width="120" height="60" as="geometry" />
        </mxCell>
        <mxCell id="d-O8g6hMYfmyvD1HsXtO-16" value="" style="endArrow=none;html=1;rounded=0;entryX=0.5;entryY=0;entryDx=0;entryDy=0;exitX=0.5;exitY=1;exitDx=0;exitDy=0;" parent="1" source="d-O8g6hMYfmyvD1HsXtO-1" target="d-O8g6hMYfmyvD1HsXtO-15" edge="1">
          <mxGeometry width="50" height="50" relative="1" as="geometry">
            <mxPoint x="230" y="310" as="sourcePoint" />
            <mxPoint x="230" y="370" as="targetPoint" />
          </mxGeometry>
        </mxCell>
        <mxCell id="d-O8g6hMYfmyvD1HsXtO-15" value="&lt;b&gt;&lt;font style=&quot;font-size: 14px;&quot;&gt;Enter registration details&lt;/font&gt;&lt;/b&gt;" style="shape=parallelogram;perimeter=parallelogramPerimeter;whiteSpace=wrap;html=1;fixedSize=1;" parent="1" vertex="1">
          <mxGeometry x="155" y="320" width="150" height="60" as="geometry" />
        </mxCell>
        <mxCell id="d-O8g6hMYfmyvD1HsXtO-17" value="" style="endArrow=none;html=1;rounded=0;entryX=0.5;entryY=1;entryDx=0;entryDy=0;" parent="1" target="d-O8g6hMYfmyvD1HsXtO-8" edge="1">
          <mxGeometry width="50" height="50" relative="1" as="geometry">
            <mxPoint x="230" y="390" as="sourcePoint" />
            <mxPoint x="450" y="240" as="targetPoint" />
            <Array as="points">
              <mxPoint x="530" y="390" />
            </Array>
          </mxGeometry>
        </mxCell>
        <mxCell id="d-O8g6hMYfmyvD1HsXtO-18" value="" style="endArrow=none;html=1;rounded=0;entryX=0.5;entryY=1;entryDx=0;entryDy=0;exitX=0.5;exitY=0;exitDx=0;exitDy=0;" parent="1" source="d-O8g6hMYfmyvD1HsXtO-7" target="d-O8g6hMYfmyvD1HsXtO-15" edge="1">
          <mxGeometry width="50" height="50" relative="1" as="geometry">
            <mxPoint x="290" y="380" as="sourcePoint" />
            <mxPoint x="340" y="330" as="targetPoint" />
          </mxGeometry>
        </mxCell>
        <mxCell id="d-O8g6hMYfmyvD1HsXtO-19" value="" style="endArrow=none;html=1;rounded=0;entryX=0.5;entryY=1;entryDx=0;entryDy=0;exitX=0.5;exitY=0;exitDx=0;exitDy=0;" parent="1" source="d-O8g6hMYfmyvD1HsXtO-1" target="d-O8g6hMYfmyvD1HsXtO-2" edge="1">
          <mxGeometry width="50" height="50" relative="1" as="geometry">
            <mxPoint x="400" y="290" as="sourcePoint" />
            <mxPoint x="450" y="240" as="targetPoint" />
          </mxGeometry>
        </mxCell>
        <mxCell id="d-O8g6hMYfmyvD1HsXtO-20" value="" style="endArrow=none;html=1;rounded=0;entryX=0.5;entryY=1;entryDx=0;entryDy=0;exitX=0.5;exitY=0;exitDx=0;exitDy=0;" parent="1" source="d-O8g6hMYfmyvD1HsXtO-2" target="d-O8g6hMYfmyvD1HsXtO-3" edge="1">
          <mxGeometry width="50" height="50" relative="1" as="geometry">
            <mxPoint x="400" y="290" as="sourcePoint" />
            <mxPoint x="450" y="240" as="targetPoint" />
          </mxGeometry>
        </mxCell>
        <mxCell id="d-O8g6hMYfmyvD1HsXtO-24" value="" style="endArrow=none;html=1;rounded=0;exitX=1;exitY=0.5;exitDx=0;exitDy=0;entryX=0;entryY=0.5;entryDx=0;entryDy=0;" parent="1" source="d-O8g6hMYfmyvD1HsXtO-1" target="d-O8g6hMYfmyvD1HsXtO-8" edge="1">
          <mxGeometry width="50" height="50" relative="1" as="geometry">
            <mxPoint x="400" y="290" as="sourcePoint" />
            <mxPoint x="450" y="240" as="targetPoint" />
          </mxGeometry>
        </mxCell>
        <mxCell id="d-O8g6hMYfmyvD1HsXtO-25" value="" style="endArrow=none;html=1;rounded=0;exitX=0.5;exitY=0;exitDx=0;exitDy=0;entryX=0.5;entryY=1;entryDx=0;entryDy=0;" parent="1" source="d-O8g6hMYfmyvD1HsXtO-12" target="d-O8g6hMYfmyvD1HsXtO-7" edge="1">
          <mxGeometry width="50" height="50" relative="1" as="geometry">
            <mxPoint x="400" y="290" as="sourcePoint" />
            <mxPoint x="450" y="240" as="targetPoint" />
          </mxGeometry>
        </mxCell>
        <mxCell id="YUyKvb2W4XE3DTmVrbBc-1" value="&lt;b&gt;&lt;font style=&quot;font-size: 14px;&quot;&gt;False&lt;/font&gt;&lt;/b&gt;" style="text;html=1;align=center;verticalAlign=middle;resizable=0;points=[];autosize=1;strokeColor=none;fillColor=none;" vertex="1" parent="1">
          <mxGeometry x="340" y="225" width="60" height="30" as="geometry" />
        </mxCell>
        <mxCell id="YUyKvb2W4XE3DTmVrbBc-2" value="&lt;b&gt;&lt;font style=&quot;font-size: 14px;&quot;&gt;True&lt;/font&gt;&lt;/b&gt;" style="text;html=1;align=center;verticalAlign=middle;resizable=0;points=[];autosize=1;strokeColor=none;fillColor=none;" vertex="1" parent="1">
          <mxGeometry x="235" y="290" width="50" height="30" as="geometry" />
        </mxCell>
      </root>
    </mxGraphModel>
  </diagram>
  <diagram id="YIGoeyB9NBGVOyRllvX8" name="Manage Appointments">
    <mxGraphModel dx="748" dy="496" grid="1" gridSize="10" guides="1" tooltips="1" connect="1" arrows="1" fold="1" page="1" pageScale="1" pageWidth="850" pageHeight="1100" math="0" shadow="0">
      <root>
        <mxCell id="0" />
        <mxCell id="1" parent="0" />
        <mxCell id="wjQ7lYcba0svQqW3vosK-1" value="" style="ellipse;whiteSpace=wrap;html=1;" parent="1" vertex="1">
          <mxGeometry x="350" y="60" width="120" height="60" as="geometry" />
        </mxCell>
        <mxCell id="wjQ7lYcba0svQqW3vosK-2" value="&lt;font style=&quot;font-size: 20px;&quot;&gt;&lt;b&gt;Stop&lt;/b&gt;&lt;/font&gt;" style="ellipse;whiteSpace=wrap;html=1;" parent="1" vertex="1">
          <mxGeometry x="360" y="510" width="120" height="60" as="geometry" />
        </mxCell>
        <mxCell id="wjQ7lYcba0svQqW3vosK-3" value="&lt;font size=&quot;3&quot;&gt;&lt;b&gt;take Appointments&lt;/b&gt;&lt;/font&gt;" style="rounded=0;whiteSpace=wrap;html=1;" parent="1" vertex="1">
          <mxGeometry x="90" y="160" width="140" height="40" as="geometry" />
        </mxCell>
        <mxCell id="wjQ7lYcba0svQqW3vosK-4" value="&lt;font size=&quot;3&quot;&gt;&lt;b&gt;Invalid input&lt;/b&gt;&lt;/font&gt;" style="rounded=0;whiteSpace=wrap;html=1;" parent="1" vertex="1">
          <mxGeometry x="280" y="330" width="140" height="40" as="geometry" />
        </mxCell>
        <mxCell id="wjQ7lYcba0svQqW3vosK-5" value="&lt;b style=&quot;&quot;&gt;&lt;font style=&quot;font-size: 16px;&quot;&gt;Delete Appointment&lt;/font&gt;&lt;/b&gt;" style="rounded=0;whiteSpace=wrap;html=1;" parent="1" vertex="1">
          <mxGeometry x="570" y="160" width="140" height="40" as="geometry" />
        </mxCell>
        <mxCell id="wjQ7lYcba0svQqW3vosK-6" value="&lt;b style=&quot;&quot;&gt;&lt;font style=&quot;font-size: 15px;&quot;&gt;Appointment confirmed&lt;/font&gt;&lt;/b&gt;" style="rounded=0;whiteSpace=wrap;html=1;" parent="1" vertex="1">
          <mxGeometry x="90" y="430" width="140" height="40" as="geometry" />
        </mxCell>
        <mxCell id="wjQ7lYcba0svQqW3vosK-7" value="&lt;b style=&quot;&quot;&gt;&lt;font style=&quot;font-size: 14px;&quot;&gt;Appointment deleted successfully&lt;/font&gt;&lt;/b&gt;" style="rounded=0;whiteSpace=wrap;html=1;" parent="1" vertex="1">
          <mxGeometry x="570" y="444" width="140" height="40" as="geometry" />
        </mxCell>
        <mxCell id="wjQ7lYcba0svQqW3vosK-8" value="&lt;font style=&quot;font-size: 14px;&quot;&gt;&lt;b&gt;No Appointment Details Available&lt;/b&gt;&lt;/font&gt;" style="rounded=0;whiteSpace=wrap;html=1;" parent="1" vertex="1">
          <mxGeometry x="774" y="340" width="140" height="39" as="geometry" />
        </mxCell>
        <mxCell id="wjQ7lYcba0svQqW3vosK-9" value="&lt;span style=&quot;font-size: 14px;&quot;&gt;&lt;b&gt;Validation&lt;/b&gt;&lt;/span&gt;" style="rhombus;whiteSpace=wrap;html=1;" parent="1" vertex="1">
          <mxGeometry x="591" y="310" width="98" height="98" as="geometry" />
        </mxCell>
        <mxCell id="wjQ7lYcba0svQqW3vosK-10" value="&lt;font style=&quot;font-size: 14px;&quot;&gt;&lt;b&gt;Validation&lt;/b&gt;&lt;/font&gt;" style="rhombus;whiteSpace=wrap;html=1;" parent="1" vertex="1">
          <mxGeometry x="120" y="310" width="80" height="80" as="geometry" />
        </mxCell>
        <mxCell id="wjQ7lYcba0svQqW3vosK-11" value="" style="endArrow=none;html=1;rounded=0;entryX=0.5;entryY=1;entryDx=0;entryDy=0;" parent="1" target="wjQ7lYcba0svQqW3vosK-1" edge="1">
          <mxGeometry width="50" height="50" relative="1" as="geometry">
            <mxPoint x="410" y="140" as="sourcePoint" />
            <mxPoint x="530" y="290" as="targetPoint" />
          </mxGeometry>
        </mxCell>
        <mxCell id="wjQ7lYcba0svQqW3vosK-12" value="" style="endArrow=classic;startArrow=classic;html=1;rounded=0;exitX=0.5;exitY=0;exitDx=0;exitDy=0;" parent="1" source="wjQ7lYcba0svQqW3vosK-3" edge="1">
          <mxGeometry width="50" height="50" relative="1" as="geometry">
            <mxPoint x="170" y="140" as="sourcePoint" />
            <mxPoint x="640" y="160" as="targetPoint" />
            <Array as="points">
              <mxPoint x="160" y="140" />
              <mxPoint x="425" y="140" />
              <mxPoint x="640" y="140" />
            </Array>
          </mxGeometry>
        </mxCell>
        <mxCell id="wjQ7lYcba0svQqW3vosK-13" value="" style="endArrow=classic;html=1;rounded=0;exitX=0.5;exitY=1;exitDx=0;exitDy=0;" parent="1" source="wjQ7lYcba0svQqW3vosK-3" target="wjQ7lYcba0svQqW3vosK-10" edge="1">
          <mxGeometry width="50" height="50" relative="1" as="geometry">
            <mxPoint x="480" y="340" as="sourcePoint" />
            <mxPoint x="530" y="290" as="targetPoint" />
          </mxGeometry>
        </mxCell>
        <mxCell id="wjQ7lYcba0svQqW3vosK-14" value="" style="endArrow=classic;html=1;rounded=0;exitX=1;exitY=0.5;exitDx=0;exitDy=0;entryX=0;entryY=0.5;entryDx=0;entryDy=0;" parent="1" source="wjQ7lYcba0svQqW3vosK-10" target="wjQ7lYcba0svQqW3vosK-4" edge="1">
          <mxGeometry width="50" height="50" relative="1" as="geometry">
            <mxPoint x="480" y="340" as="sourcePoint" />
            <mxPoint x="530" y="290" as="targetPoint" />
          </mxGeometry>
        </mxCell>
        <mxCell id="wjQ7lYcba0svQqW3vosK-15" value="" style="endArrow=classic;html=1;rounded=0;exitX=0.5;exitY=1;exitDx=0;exitDy=0;entryX=0.5;entryY=0;entryDx=0;entryDy=0;" parent="1" source="wjQ7lYcba0svQqW3vosK-10" target="wjQ7lYcba0svQqW3vosK-6" edge="1">
          <mxGeometry width="50" height="50" relative="1" as="geometry">
            <mxPoint x="480" y="340" as="sourcePoint" />
            <mxPoint x="530" y="290" as="targetPoint" />
          </mxGeometry>
        </mxCell>
        <mxCell id="wjQ7lYcba0svQqW3vosK-16" value="" style="endArrow=classic;html=1;rounded=0;exitX=0.5;exitY=0;exitDx=0;exitDy=0;" parent="1" source="wjQ7lYcba0svQqW3vosK-4" edge="1">
          <mxGeometry width="50" height="50" relative="1" as="geometry">
            <mxPoint x="480" y="340" as="sourcePoint" />
            <mxPoint x="160" y="210" as="targetPoint" />
            <Array as="points">
              <mxPoint x="350" y="210" />
            </Array>
          </mxGeometry>
        </mxCell>
        <mxCell id="wjQ7lYcba0svQqW3vosK-17" value="" style="endArrow=classic;html=1;rounded=0;exitX=0.5;exitY=1;exitDx=0;exitDy=0;entryX=0;entryY=0.5;entryDx=0;entryDy=0;" parent="1" source="wjQ7lYcba0svQqW3vosK-6" target="wjQ7lYcba0svQqW3vosK-2" edge="1">
          <mxGeometry width="50" height="50" relative="1" as="geometry">
            <mxPoint x="480" y="340" as="sourcePoint" />
            <mxPoint x="160" y="560" as="targetPoint" />
            <Array as="points">
              <mxPoint x="160" y="540" />
            </Array>
          </mxGeometry>
        </mxCell>
        <mxCell id="wjQ7lYcba0svQqW3vosK-18" value="" style="endArrow=classic;html=1;rounded=0;entryX=1;entryY=0.5;entryDx=0;entryDy=0;exitX=0.55;exitY=0.975;exitDx=0;exitDy=0;exitPerimeter=0;" parent="1" source="wjQ7lYcba0svQqW3vosK-8" target="wjQ7lYcba0svQqW3vosK-2" edge="1">
          <mxGeometry width="50" height="50" relative="1" as="geometry">
            <mxPoint x="852" y="378" as="sourcePoint" />
            <mxPoint x="850" y="560" as="targetPoint" />
            <Array as="points">
              <mxPoint x="850" y="540" />
            </Array>
          </mxGeometry>
        </mxCell>
        <mxCell id="wjQ7lYcba0svQqW3vosK-19" value="" style="endArrow=classic;html=1;rounded=0;entryX=0.5;entryY=0;entryDx=0;entryDy=0;exitX=0.5;exitY=1;exitDx=0;exitDy=0;" parent="1" source="wjQ7lYcba0svQqW3vosK-5" target="wjQ7lYcba0svQqW3vosK-9" edge="1">
          <mxGeometry width="50" height="50" relative="1" as="geometry">
            <mxPoint x="480" y="340" as="sourcePoint" />
            <mxPoint x="530" y="290" as="targetPoint" />
          </mxGeometry>
        </mxCell>
        <mxCell id="wjQ7lYcba0svQqW3vosK-20" value="" style="endArrow=classic;html=1;rounded=0;exitX=0.5;exitY=1;exitDx=0;exitDy=0;" parent="1" source="wjQ7lYcba0svQqW3vosK-9" target="wjQ7lYcba0svQqW3vosK-7" edge="1">
          <mxGeometry width="50" height="50" relative="1" as="geometry">
            <mxPoint x="480" y="340" as="sourcePoint" />
            <mxPoint x="530" y="290" as="targetPoint" />
          </mxGeometry>
        </mxCell>
        <mxCell id="wjQ7lYcba0svQqW3vosK-21" value="" style="endArrow=none;html=1;rounded=0;entryX=0.5;entryY=1;entryDx=0;entryDy=0;" parent="1" target="wjQ7lYcba0svQqW3vosK-7" edge="1">
          <mxGeometry width="50" height="50" relative="1" as="geometry">
            <mxPoint x="640" y="540" as="sourcePoint" />
            <mxPoint x="530" y="290" as="targetPoint" />
          </mxGeometry>
        </mxCell>
        <mxCell id="wjQ7lYcba0svQqW3vosK-22" value="" style="endArrow=classic;html=1;rounded=0;entryX=0;entryY=0.5;entryDx=0;entryDy=0;exitX=1;exitY=0.5;exitDx=0;exitDy=0;" parent="1" source="wjQ7lYcba0svQqW3vosK-9" target="wjQ7lYcba0svQqW3vosK-8" edge="1">
          <mxGeometry width="50" height="50" relative="1" as="geometry">
            <mxPoint x="480" y="340" as="sourcePoint" />
            <mxPoint x="530" y="290" as="targetPoint" />
          </mxGeometry>
        </mxCell>
        <mxCell id="wjQ7lYcba0svQqW3vosK-23" value="&lt;font size=&quot;3&quot;&gt;&lt;b&gt;Start&lt;/b&gt;&lt;/font&gt;" style="text;strokeColor=none;align=center;fillColor=none;html=1;verticalAlign=middle;whiteSpace=wrap;rounded=0;" parent="1" vertex="1">
          <mxGeometry x="380" y="75" width="60" height="30" as="geometry" />
        </mxCell>
        <mxCell id="wjQ7lYcba0svQqW3vosK-24" value="&lt;b&gt;False&lt;/b&gt;" style="text;html=1;align=center;verticalAlign=middle;resizable=0;points=[];autosize=1;strokeColor=none;fillColor=none;fontSize=14;" parent="1" vertex="1">
          <mxGeometry x="200" y="320" width="60" height="30" as="geometry" />
        </mxCell>
        <mxCell id="wjQ7lYcba0svQqW3vosK-25" value="&lt;b&gt;True&lt;/b&gt;" style="text;html=1;align=center;verticalAlign=middle;resizable=0;points=[];autosize=1;strokeColor=none;fillColor=none;fontSize=14;" parent="1" vertex="1">
          <mxGeometry x="175" y="405" width="50" height="30" as="geometry" />
        </mxCell>
        <mxCell id="wjQ7lYcba0svQqW3vosK-26" value="&lt;b&gt;False&lt;/b&gt;" style="text;html=1;align=center;verticalAlign=middle;resizable=0;points=[];autosize=1;strokeColor=none;fillColor=none;fontSize=14;" parent="1" vertex="1">
          <mxGeometry x="714" y="335" width="60" height="30" as="geometry" />
        </mxCell>
        <mxCell id="wjQ7lYcba0svQqW3vosK-27" value="&lt;b&gt;True&lt;/b&gt;" style="text;html=1;align=center;verticalAlign=middle;resizable=0;points=[];autosize=1;strokeColor=none;fillColor=none;fontSize=14;" parent="1" vertex="1">
          <mxGeometry x="636" y="420" width="50" height="30" as="geometry" />
        </mxCell>
        <mxCell id="wjQ7lYcba0svQqW3vosK-28" value="&lt;b style=&quot;border-color: var(--border-color);&quot;&gt;Add Appointment&amp;nbsp; Details&lt;/b&gt;" style="shape=parallelogram;perimeter=parallelogramPerimeter;whiteSpace=wrap;html=1;fixedSize=1;fontSize=16;" parent="1" vertex="1">
          <mxGeometry x="73" y="218" width="174" height="72" as="geometry" />
        </mxCell>
        <mxCell id="wjQ7lYcba0svQqW3vosK-29" value="&lt;b style=&quot;border-color: var(--border-color);&quot;&gt;&lt;font style=&quot;font-size: 15px;&quot;&gt;Delete Appointment Details&lt;/font&gt;&lt;/b&gt;" style="shape=parallelogram;perimeter=parallelogramPerimeter;whiteSpace=wrap;html=1;fixedSize=1;fontSize=16;" parent="1" vertex="1">
          <mxGeometry x="557" y="218" width="166" height="64" as="geometry" />
        </mxCell>
      </root>
    </mxGraphModel>
  </diagram>
  <diagram id="HjEgKDNtmwfDVSXYp5Bv" name="Payments">
    <mxGraphModel dx="748" dy="496" grid="1" gridSize="10" guides="1" tooltips="1" connect="1" arrows="1" fold="1" page="1" pageScale="1" pageWidth="850" pageHeight="1100" math="0" shadow="0">
      <root>
        <mxCell id="0" />
        <mxCell id="1" parent="0" />
        <mxCell id="93NYl31De2x_F2uPUHe0-1" value="&lt;span style=&quot;font-size: 13px;&quot;&gt;&lt;b&gt;Validation&lt;/b&gt;&lt;/span&gt;" style="rhombus;whiteSpace=wrap;html=1;" parent="1" vertex="1">
          <mxGeometry x="160" y="210" width="120" height="110" as="geometry" />
        </mxCell>
        <mxCell id="93NYl31De2x_F2uPUHe0-2" value="&lt;b style=&quot;&quot;&gt;&lt;font style=&quot;font-size: 16px;&quot;&gt;Enter Payment Details&lt;/font&gt;&lt;/b&gt;" style="rounded=0;whiteSpace=wrap;html=1;" parent="1" vertex="1">
          <mxGeometry x="150" y="120" width="140" height="40" as="geometry" />
        </mxCell>
        <mxCell id="93NYl31De2x_F2uPUHe0-3" value="&lt;font style=&quot;font-size: 20px;&quot;&gt;&lt;b&gt;Start&lt;/b&gt;&lt;/font&gt;" style="ellipse;whiteSpace=wrap;html=1;" parent="1" vertex="1">
          <mxGeometry x="160" y="20" width="120" height="60" as="geometry" />
        </mxCell>
        <mxCell id="93NYl31De2x_F2uPUHe0-4" value="" style="endArrow=classic;html=1;rounded=0;exitX=0.5;exitY=1;exitDx=0;exitDy=0;entryX=0.5;entryY=0;entryDx=0;entryDy=0;" parent="1" source="93NYl31De2x_F2uPUHe0-3" target="93NYl31De2x_F2uPUHe0-2" edge="1">
          <mxGeometry width="50" height="50" relative="1" as="geometry">
            <mxPoint x="350" y="290" as="sourcePoint" />
            <mxPoint x="400" y="240" as="targetPoint" />
          </mxGeometry>
        </mxCell>
        <mxCell id="93NYl31De2x_F2uPUHe0-5" value="" style="endArrow=classic;html=1;rounded=0;exitX=0.5;exitY=1;exitDx=0;exitDy=0;entryX=0.5;entryY=0;entryDx=0;entryDy=0;" parent="1" source="93NYl31De2x_F2uPUHe0-2" target="93NYl31De2x_F2uPUHe0-1" edge="1">
          <mxGeometry width="50" height="50" relative="1" as="geometry">
            <mxPoint x="230" y="90" as="sourcePoint" />
            <mxPoint x="230" y="130" as="targetPoint" />
          </mxGeometry>
        </mxCell>
        <mxCell id="93NYl31De2x_F2uPUHe0-6" value="" style="endArrow=classic;html=1;rounded=0;entryX=0.5;entryY=0;entryDx=0;entryDy=0;exitX=0.5;exitY=1;exitDx=0;exitDy=0;" parent="1" source="93NYl31De2x_F2uPUHe0-1" target="93NYl31De2x_F2uPUHe0-7" edge="1">
          <mxGeometry width="50" height="50" relative="1" as="geometry">
            <mxPoint x="220" y="320" as="sourcePoint" />
            <mxPoint x="220" y="360" as="targetPoint" />
          </mxGeometry>
        </mxCell>
        <mxCell id="93NYl31De2x_F2uPUHe0-7" value="&lt;b style=&quot;&quot;&gt;&lt;font style=&quot;font-size: 16px;&quot;&gt;Successfull&lt;/font&gt;&lt;/b&gt;" style="rounded=0;whiteSpace=wrap;html=1;" parent="1" vertex="1">
          <mxGeometry x="150" y="360" width="140" height="40" as="geometry" />
        </mxCell>
        <mxCell id="93NYl31De2x_F2uPUHe0-8" value="&lt;b style=&quot;&quot;&gt;&lt;font style=&quot;font-size: 16px;&quot;&gt;Payment Unsuccesfull&lt;/font&gt;&lt;/b&gt;" style="rounded=0;whiteSpace=wrap;html=1;" parent="1" vertex="1">
          <mxGeometry x="440" y="245" width="140" height="40" as="geometry" />
        </mxCell>
        <mxCell id="93NYl31De2x_F2uPUHe0-9" value="&lt;font style=&quot;font-size: 20px;&quot;&gt;&lt;b&gt;Stop&lt;/b&gt;&lt;/font&gt;" style="ellipse;whiteSpace=wrap;html=1;" parent="1" vertex="1">
          <mxGeometry x="160" y="440" width="120" height="60" as="geometry" />
        </mxCell>
        <mxCell id="93NYl31De2x_F2uPUHe0-10" value="" style="endArrow=classic;html=1;rounded=0;exitX=0.5;exitY=1;exitDx=0;exitDy=0;entryX=0.5;entryY=0;entryDx=0;entryDy=0;" parent="1" source="93NYl31De2x_F2uPUHe0-7" target="93NYl31De2x_F2uPUHe0-9" edge="1">
          <mxGeometry width="50" height="50" relative="1" as="geometry">
            <mxPoint x="540" y="240" as="sourcePoint" />
            <mxPoint x="590" y="190" as="targetPoint" />
          </mxGeometry>
        </mxCell>
        <mxCell id="93NYl31De2x_F2uPUHe0-11" value="&lt;b&gt;&lt;font style=&quot;font-size: 16px;&quot;&gt;True&lt;/font&gt;&lt;/b&gt;" style="text;html=1;align=center;verticalAlign=middle;resizable=0;points=[];autosize=1;strokeColor=none;fillColor=none;fontSize=18;" parent="1" vertex="1">
          <mxGeometry x="220" y="320" width="56" height="40" as="geometry" />
        </mxCell>
        <mxCell id="93NYl31De2x_F2uPUHe0-12" value="&lt;b&gt;&lt;font style=&quot;font-size: 16px;&quot;&gt;False&lt;/font&gt;&lt;/b&gt;" style="text;html=1;align=center;verticalAlign=middle;resizable=0;points=[];autosize=1;strokeColor=none;fillColor=none;fontSize=18;" parent="1" vertex="1">
          <mxGeometry x="330" y="230" width="64" height="40" as="geometry" />
        </mxCell>
        <mxCell id="93NYl31De2x_F2uPUHe0-13" value="" style="endArrow=none;html=1;rounded=0;fontSize=18;exitX=1;exitY=0.5;exitDx=0;exitDy=0;entryX=0;entryY=0.5;entryDx=0;entryDy=0;" parent="1" source="93NYl31De2x_F2uPUHe0-1" target="93NYl31De2x_F2uPUHe0-8" edge="1">
          <mxGeometry width="50" height="50" relative="1" as="geometry">
            <mxPoint x="400" y="290" as="sourcePoint" />
            <mxPoint x="450" y="240" as="targetPoint" />
          </mxGeometry>
        </mxCell>
        <mxCell id="93NYl31De2x_F2uPUHe0-14" value="" style="endArrow=classic;html=1;rounded=0;fontSize=18;exitX=0.5;exitY=1;exitDx=0;exitDy=0;" parent="1" source="93NYl31De2x_F2uPUHe0-8" edge="1">
          <mxGeometry width="50" height="50" relative="1" as="geometry">
            <mxPoint x="510" y="290" as="sourcePoint" />
            <mxPoint x="220" y="420" as="targetPoint" />
            <Array as="points">
              <mxPoint x="510" y="420" />
            </Array>
          </mxGeometry>
        </mxCell>
      </root>
    </mxGraphModel>
  </diagram>
  <diagram id="Xn2xufuBwl2xsznSsNqx" name="Send Feedback">
    <mxGraphModel dx="748" dy="496" grid="1" gridSize="10" guides="1" tooltips="1" connect="1" arrows="1" fold="1" page="1" pageScale="1" pageWidth="850" pageHeight="1100" math="0" shadow="0">
      <root>
        <mxCell id="0" />
        <mxCell id="1" parent="0" />
        <mxCell id="uCmKnR6KT8yNWOW4jout-1" value="&lt;span style=&quot;font-size: 13px;&quot;&gt;&lt;b&gt;Validation&lt;/b&gt;&lt;/span&gt;" style="rhombus;whiteSpace=wrap;html=1;" parent="1" vertex="1">
          <mxGeometry x="160" y="210" width="120" height="110" as="geometry" />
        </mxCell>
        <mxCell id="uCmKnR6KT8yNWOW4jout-2" value="&lt;b style=&quot;&quot;&gt;&lt;font style=&quot;font-size: 16px;&quot;&gt;Enter Feedback Details&lt;/font&gt;&lt;/b&gt;" style="rounded=0;whiteSpace=wrap;html=1;" parent="1" vertex="1">
          <mxGeometry x="150" y="120" width="140" height="40" as="geometry" />
        </mxCell>
        <mxCell id="uCmKnR6KT8yNWOW4jout-3" value="&lt;font style=&quot;font-size: 20px;&quot;&gt;&lt;b&gt;Start&lt;/b&gt;&lt;/font&gt;" style="ellipse;whiteSpace=wrap;html=1;" parent="1" vertex="1">
          <mxGeometry x="160" y="20" width="120" height="60" as="geometry" />
        </mxCell>
        <mxCell id="uCmKnR6KT8yNWOW4jout-4" value="" style="endArrow=classic;html=1;rounded=0;exitX=0.5;exitY=1;exitDx=0;exitDy=0;entryX=0.5;entryY=0;entryDx=0;entryDy=0;" parent="1" source="uCmKnR6KT8yNWOW4jout-3" target="uCmKnR6KT8yNWOW4jout-2" edge="1">
          <mxGeometry width="50" height="50" relative="1" as="geometry">
            <mxPoint x="350" y="290" as="sourcePoint" />
            <mxPoint x="400" y="240" as="targetPoint" />
          </mxGeometry>
        </mxCell>
        <mxCell id="uCmKnR6KT8yNWOW4jout-5" value="" style="endArrow=classic;html=1;rounded=0;exitX=0.5;exitY=1;exitDx=0;exitDy=0;entryX=0.5;entryY=0;entryDx=0;entryDy=0;" parent="1" source="uCmKnR6KT8yNWOW4jout-2" target="uCmKnR6KT8yNWOW4jout-1" edge="1">
          <mxGeometry width="50" height="50" relative="1" as="geometry">
            <mxPoint x="230" y="90" as="sourcePoint" />
            <mxPoint x="230" y="130" as="targetPoint" />
          </mxGeometry>
        </mxCell>
        <mxCell id="uCmKnR6KT8yNWOW4jout-6" value="" style="endArrow=classic;html=1;rounded=0;entryX=0.5;entryY=0;entryDx=0;entryDy=0;exitX=0.5;exitY=1;exitDx=0;exitDy=0;" parent="1" source="uCmKnR6KT8yNWOW4jout-1" target="uCmKnR6KT8yNWOW4jout-7" edge="1">
          <mxGeometry width="50" height="50" relative="1" as="geometry">
            <mxPoint x="220" y="320" as="sourcePoint" />
            <mxPoint x="220" y="360" as="targetPoint" />
          </mxGeometry>
        </mxCell>
        <mxCell id="uCmKnR6KT8yNWOW4jout-7" value="&lt;b style=&quot;&quot;&gt;&lt;font style=&quot;font-size: 16px;&quot;&gt;Feedback sent successfully&lt;/font&gt;&lt;/b&gt;" style="rounded=0;whiteSpace=wrap;html=1;" parent="1" vertex="1">
          <mxGeometry x="150" y="360" width="140" height="40" as="geometry" />
        </mxCell>
        <mxCell id="uCmKnR6KT8yNWOW4jout-8" value="&lt;b style=&quot;&quot;&gt;&lt;font style=&quot;font-size: 16px;&quot;&gt;Feedback is Unsuccessfull&lt;/font&gt;&lt;/b&gt;" style="rounded=0;whiteSpace=wrap;html=1;" parent="1" vertex="1">
          <mxGeometry x="440" y="245" width="140" height="40" as="geometry" />
        </mxCell>
        <mxCell id="uCmKnR6KT8yNWOW4jout-9" value="&lt;font style=&quot;font-size: 20px;&quot;&gt;&lt;b&gt;Stop&lt;/b&gt;&lt;/font&gt;" style="ellipse;whiteSpace=wrap;html=1;" parent="1" vertex="1">
          <mxGeometry x="160" y="440" width="120" height="60" as="geometry" />
        </mxCell>
        <mxCell id="uCmKnR6KT8yNWOW4jout-10" value="" style="endArrow=classic;html=1;rounded=0;exitX=0.5;exitY=1;exitDx=0;exitDy=0;entryX=0.5;entryY=0;entryDx=0;entryDy=0;" parent="1" source="uCmKnR6KT8yNWOW4jout-7" target="uCmKnR6KT8yNWOW4jout-9" edge="1">
          <mxGeometry width="50" height="50" relative="1" as="geometry">
            <mxPoint x="540" y="240" as="sourcePoint" />
            <mxPoint x="590" y="190" as="targetPoint" />
          </mxGeometry>
        </mxCell>
        <mxCell id="uCmKnR6KT8yNWOW4jout-11" value="&lt;b&gt;&lt;font style=&quot;font-size: 16px;&quot;&gt;True&lt;/font&gt;&lt;/b&gt;" style="text;html=1;align=center;verticalAlign=middle;resizable=0;points=[];autosize=1;strokeColor=none;fillColor=none;fontSize=18;" parent="1" vertex="1">
          <mxGeometry x="220" y="320" width="56" height="40" as="geometry" />
        </mxCell>
        <mxCell id="uCmKnR6KT8yNWOW4jout-12" value="&lt;b&gt;&lt;font style=&quot;font-size: 16px;&quot;&gt;False&lt;/font&gt;&lt;/b&gt;" style="text;html=1;align=center;verticalAlign=middle;resizable=0;points=[];autosize=1;strokeColor=none;fillColor=none;fontSize=18;" parent="1" vertex="1">
          <mxGeometry x="330" y="230" width="64" height="40" as="geometry" />
        </mxCell>
        <mxCell id="uCmKnR6KT8yNWOW4jout-13" value="" style="endArrow=none;html=1;rounded=0;fontSize=18;exitX=1;exitY=0.5;exitDx=0;exitDy=0;entryX=0;entryY=0.5;entryDx=0;entryDy=0;" parent="1" source="uCmKnR6KT8yNWOW4jout-1" target="uCmKnR6KT8yNWOW4jout-8" edge="1">
          <mxGeometry width="50" height="50" relative="1" as="geometry">
            <mxPoint x="400" y="290" as="sourcePoint" />
            <mxPoint x="450" y="240" as="targetPoint" />
          </mxGeometry>
        </mxCell>
        <mxCell id="uCmKnR6KT8yNWOW4jout-14" value="" style="endArrow=classic;html=1;rounded=0;fontSize=18;exitX=0.5;exitY=1;exitDx=0;exitDy=0;" parent="1" source="uCmKnR6KT8yNWOW4jout-8" edge="1">
          <mxGeometry width="50" height="50" relative="1" as="geometry">
            <mxPoint x="400" y="290" as="sourcePoint" />
            <mxPoint x="220" y="420" as="targetPoint" />
            <Array as="points">
              <mxPoint x="510" y="420" />
            </Array>
          </mxGeometry>
        </mxCell>
      </root>
    </mxGraphModel>
  </diagram>
</mxfile>
